<svg width="224" height="58" viewBox="0 0 224 58" fill="none" xmlns="http://www.w3.org/2000/svg">
<g clip-path="url(#clip0_1704_2231)">
<path d="M7.74219 57.1583C7.74219 57.102 7.74219 57.0458 7.79843 57.0137C7.90287 57.1502 8.05551 57.094 8.18405 57.094C12.0724 57.094 15.9608 57.094 19.8492 57.094V57.1583H7.74219Z" fill="#FF2A2A"/>
<path d="M24.2695 57.1593C24.2885 57.0445 24.3417 56.9382 24.4222 56.8541L40.8353 30.5924L41.8155 28.9857C41.8632 28.8843 41.9316 28.794 42.0163 28.7206C42.0514 28.8304 42.0514 28.9483 42.0163 29.058V46.6595C42.0163 47.1255 41.9038 47.1014 42.4823 47.1496C43.7115 47.254 44.9487 47.3424 46.1859 47.3825C47.582 47.4415 48.9806 47.4039 50.3715 47.2701C53.3005 47.0646 56.1238 46.0921 58.558 44.4503C62.3908 41.8624 65.0426 37.8618 65.9331 33.3238C66.3034 31.3951 66.4142 29.4255 66.2625 27.4674C66.1689 25.7508 65.8585 24.0529 65.3386 22.4143C64.1993 18.788 61.9514 15.6103 58.9115 13.3284C57.0421 11.9492 54.8628 11.05 52.5648 10.7094C51.7424 10.5841 50.9136 10.5063 50.0823 10.4765C48.5318 10.4041 46.9893 10.3881 45.4387 10.38H41.7753C41.694 10.3913 41.6113 10.3732 41.5421 10.329C41.4729 10.2849 41.4218 10.2175 41.3977 10.139C40.1449 7.24201 38.3692 4.60045 36.1596 2.34651C35.4087 1.55982 34.6033 0.826958 33.7495 0.153356C33.7977 0.0569536 33.886 0.105151 33.9503 0.105151H37.437L50.3394 0.0489161C53.4182 0.0412888 56.4781 0.529556 59.4016 1.49496C65.029 3.31658 69.8685 6.99988 73.1234 11.9386C75.1838 14.9861 76.6 18.4224 77.2849 22.0367C77.7354 24.4706 77.9266 26.9453 77.8554 29.4195C77.8176 32.3872 77.3633 35.3348 76.5057 38.1761C75.1603 42.5955 72.7105 46.5991 69.3877 49.8087C67.8512 51.3437 66.1388 52.6919 64.2862 53.8254C61.9532 55.2064 59.3979 56.1714 56.7343 56.6773C55.5591 56.8875 54.3739 57.0376 53.1834 57.1272L52.6451 57.1754L24.2695 57.1593Z" fill="#FF2A2A"/>
<path d="M19.8522 57.0951C15.9638 57.0951 12.0754 57.0951 8.187 57.0951C8.05846 57.0951 7.90582 57.1514 7.80138 57.0148C7.83074 56.9239 7.87708 56.8394 7.93795 56.7658L19.9887 37.2282C20.0762 37.1276 20.1418 37.01 20.1815 36.8827C20.0108 36.8686 19.8389 36.8877 19.6754 36.939C18.1273 37.1946 16.5515 37.2378 14.9917 37.0675C13.5471 36.9331 12.1218 36.6395 10.7418 36.1919C7.57885 35.1494 4.88119 33.0318 3.11764 30.2069C1.84618 28.1932 0.955695 25.963 0.490562 23.6274C0.172594 22.2201 0.0215897 20.7802 0.0406681 19.3375C0.0318191 14.3615 1.9259 9.57045 5.33498 5.94559C7.59099 3.56452 10.4509 1.8403 13.6098 0.956762C15.8723 0.27917 18.2313 -0.0194304 20.5913 0.0730684C24.7469 0.176199 28.7652 1.58117 32.0797 4.08984C34.0215 5.59119 35.6279 7.48207 36.7956 9.64102C37.9153 11.6053 38.7281 13.7293 39.2057 15.9393C39.5841 17.726 39.6871 19.5602 39.511 21.378C39.2189 24.165 38.3283 26.856 36.9 29.2669C35.0602 32.4804 33.1401 35.5974 31.2281 38.7305C27.5486 44.777 23.8343 50.7968 20.0851 56.7899L19.8522 57.0951ZM19.4585 28.5279C20.4853 28.5391 21.5082 28.4011 22.4953 28.1182C23.6913 27.78 24.8009 27.189 25.7489 26.3851C26.6969 25.5813 27.4613 24.5833 27.9904 23.4587C28.6087 22.1513 28.8851 20.7085 28.7938 19.2652C28.7221 17.7787 28.3273 16.3258 27.637 15.0074C26.6933 13.2785 25.2055 11.9092 23.4044 11.1118C21.6033 10.3144 19.5894 10.1335 17.675 10.597C16.4424 10.8548 15.2856 11.3924 14.2938 12.1683C13.302 12.9441 12.5018 13.9375 11.9549 15.0717C10.9211 17.0711 10.5873 19.3594 11.0069 21.5708C11.3278 23.5735 12.385 25.3842 13.9714 26.648C15.5322 27.8826 17.4685 28.546 19.4585 28.5279V28.5279Z" fill="#FF2A2A"/>
<path d="M100.222 12.5078V14.4118H97.0811V24.285H94.7191V14.4118H91.5859V12.5078H100.222Z" fill="#2E2627"/>
<path d="M104.303 14.4122V17.3685H108.272V19.2805H104.303V22.4056H108.778V24.3256H101.941V12.4922H108.778V14.4122H104.303Z" fill="#2E2627"/>
<path d="M111.131 15.2641C111.634 14.3672 112.373 13.6253 113.268 13.1192C114.195 12.588 115.245 12.3109 116.313 12.3158C117.544 12.2896 118.753 12.643 119.776 13.328C120.764 14.0013 121.494 14.9897 121.848 16.1317H119.133C118.894 15.6001 118.495 15.1563 117.992 14.8624C117.474 14.5751 116.889 14.4309 116.297 14.4447C115.654 14.4341 115.02 14.6009 114.465 14.9267C113.929 15.2513 113.497 15.7223 113.22 16.2844C112.924 16.9281 112.77 17.6283 112.77 18.3369C112.77 19.0456 112.924 19.7458 113.22 20.3895C113.495 20.9553 113.927 21.4296 114.465 21.7552C115.02 22.081 115.654 22.2478 116.297 22.2372C116.891 22.2497 117.477 22.0997 117.992 21.8034C118.495 21.5096 118.894 21.0658 119.133 20.5341H121.848C121.497 21.6774 120.769 22.6683 119.784 23.3459C118.817 23.9622 117.703 24.3088 116.558 24.3498C115.412 24.3907 114.276 24.1246 113.268 23.5788C112.374 23.0749 111.635 22.3359 111.131 21.4419C110.614 20.4886 110.344 19.4213 110.344 18.3369C110.344 17.2526 110.614 16.1853 111.131 15.232V15.2641Z" fill="#2E2627"/>
<path d="M133.644 12.5078V24.285H131.282V19.2801H126.237V24.293H123.875V12.5078H126.237V17.3279H131.282V12.5078H133.644Z" fill="#2E2627"/>
<path d="M146.047 24.2854H143.685L138.335 16.2037V24.2854H135.973V12.4922H138.335L143.685 20.59V12.4922H146.047V24.2854Z" fill="#2E2627"/>
<path d="M150.802 23.6269C149.889 23.1211 149.131 22.377 148.608 21.4739C148.076 20.527 147.797 19.4591 147.797 18.373C147.797 17.2868 148.076 16.219 148.608 15.272C149.129 14.3672 149.887 13.6225 150.802 13.1191C151.734 12.6078 152.779 12.3398 153.842 12.3398C154.905 12.3398 155.951 12.6078 156.883 13.1191C157.793 13.6222 158.549 14.3637 159.068 15.264C159.592 16.2138 159.866 17.2806 159.866 18.365C159.866 19.4493 159.592 20.5161 159.068 21.4659C158.549 22.3686 157.794 23.1129 156.883 23.6189C155.953 24.1301 154.908 24.3982 153.846 24.3982C152.785 24.3982 151.74 24.1301 150.81 23.6189L150.802 23.6269ZM155.71 21.8113C156.255 21.4856 156.694 21.0083 156.972 20.4376C157.288 19.7935 157.445 19.0826 157.43 18.365C157.446 17.6498 157.289 16.9413 156.972 16.3003C156.694 15.7337 156.255 15.2616 155.71 14.9427C155.134 14.6319 154.489 14.4692 153.834 14.4692C153.18 14.4692 152.535 14.6319 151.959 14.9427C151.408 15.2591 150.963 15.7315 150.681 16.3003C150.364 16.9413 150.206 17.6498 150.223 18.365C150.207 19.0826 150.364 19.7935 150.681 20.4376C150.965 21.0094 151.409 21.4866 151.959 21.8113C152.533 22.1278 153.178 22.2938 153.834 22.2938C154.49 22.2938 155.136 22.1278 155.71 21.8113Z" fill="#2E2627"/>
<path d="M163.979 22.4132H167.859V24.285H161.617V12.5078H163.979V22.4132Z" fill="#2E2627"/>
<path d="M171.786 23.6269C170.873 23.1211 170.115 22.377 169.593 21.4739C169.061 20.527 168.781 19.4591 168.781 18.373C168.781 17.2868 169.061 16.219 169.593 15.272C170.113 14.3672 170.872 13.6225 171.786 13.1191C172.718 12.6078 173.764 12.3398 174.827 12.3398C175.89 12.3398 176.936 12.6078 177.868 13.1191C178.779 13.6215 179.532 14.3668 180.045 15.272C180.572 16.2207 180.848 17.2879 180.848 18.373C180.848 19.4581 180.572 20.5253 180.045 21.4739C179.528 22.3784 178.772 23.1233 177.86 23.6269C176.929 24.1382 175.885 24.4062 174.823 24.4062C173.761 24.4062 172.717 24.1382 171.786 23.6269V23.6269ZM176.695 21.8113C177.24 21.4839 177.681 21.0073 177.964 20.4376C178.278 19.7928 178.432 19.0819 178.414 18.365C178.433 17.6505 178.279 16.942 177.964 16.3003C177.684 15.7326 177.242 15.2603 176.695 14.9427C176.126 14.6164 175.478 14.4524 174.823 14.4687C174.165 14.4534 173.515 14.6172 172.943 14.9427C172.392 15.2591 171.948 15.7315 171.666 16.3003C171.355 16.9434 171.2 17.6509 171.216 18.365C171.201 19.0815 171.355 19.7915 171.666 20.4376C171.95 21.0094 172.393 21.4866 172.943 21.8113C173.514 22.1392 174.164 22.3058 174.823 22.2934C175.479 22.3068 176.127 22.1401 176.695 21.8113V21.8113Z" fill="#2E2627"/>
<path d="M190.803 16.0671C190.545 15.5916 190.158 15.1988 189.686 14.9344C189.176 14.6681 188.607 14.5355 188.031 14.5488C187.382 14.5394 186.741 14.703 186.176 15.0228C185.634 15.3413 185.195 15.8101 184.914 16.3724C184.61 17.0097 184.452 17.7068 184.452 18.4129C184.452 19.119 184.61 19.8162 184.914 20.4534C185.202 21.0216 185.652 21.4913 186.208 21.8031C186.795 22.1278 187.457 22.2913 188.128 22.2771C188.926 22.3097 189.709 22.0562 190.337 21.5621C190.929 21.0421 191.329 20.3372 191.47 19.5617H187.453V17.7542H193.832V19.8108C193.67 20.6375 193.324 21.4172 192.82 22.0923C192.288 22.7962 191.604 23.3703 190.819 23.7713C189.967 24.1992 189.025 24.4169 188.072 24.4059C186.993 24.4109 185.933 24.1339 184.995 23.6026C184.092 23.1021 183.344 22.3628 182.833 21.4657C182.322 20.5106 182.055 19.444 182.055 18.3607C182.055 17.2774 182.322 16.2108 182.833 15.2557C183.343 14.3556 184.091 13.6135 184.995 13.1108C186.005 12.5724 187.139 12.3077 188.283 12.343C189.427 12.3782 190.543 12.7121 191.518 13.3116C192.492 13.9535 193.209 14.9176 193.543 16.035L190.803 16.0671Z" fill="#2E2627"/>
<path d="M197.924 12.5078V24.285H195.562V12.5078H197.924Z" fill="#2E2627"/>
<path d="M202.612 14.4122V17.3685H206.573V19.2805H202.612V22.4056H207.079V24.3256H200.25V12.4922H207.079V14.4122H202.612Z" fill="#2E2627"/>
<path d="M211.075 23.981C210.452 23.7302 209.912 23.31 209.516 22.7679C209.128 22.2213 208.92 21.5668 208.922 20.8961H211.453C211.466 21.3318 211.651 21.7446 211.967 22.0449C212.325 22.3402 212.781 22.4894 213.244 22.4626C213.708 22.4904 214.167 22.3507 214.538 22.069C214.692 21.9451 214.815 21.7869 214.897 21.607C214.98 21.4271 215.019 21.2304 215.012 21.0326C215.019 20.8751 214.994 20.7178 214.938 20.5701C214.883 20.4224 214.799 20.2874 214.69 20.1731C214.463 19.94 214.189 19.7567 213.887 19.6348C213.453 19.4684 213.011 19.3263 212.561 19.209C211.925 19.0311 211.302 18.8083 210.697 18.5423C210.209 18.3169 209.784 17.9748 209.46 17.5461C209.096 17.025 208.915 16.3977 208.946 15.7627C208.934 15.1188 209.116 14.4863 209.468 13.9471C209.833 13.4169 210.344 13.0039 210.938 12.7581C211.621 12.4681 212.358 12.3257 213.1 12.3404C214.159 12.2945 215.203 12.6057 216.064 13.2241C216.44 13.5209 216.747 13.896 216.963 14.3232C217.179 14.7505 217.3 15.2197 217.317 15.6984H214.722C214.712 15.5034 214.66 15.3129 214.57 15.1397C214.48 14.9664 214.354 14.8145 214.2 14.6942C213.838 14.4148 213.387 14.2751 212.931 14.3006C212.53 14.2757 212.135 14.4018 211.822 14.654C211.681 14.7837 211.571 14.9435 211.5 15.1215C211.429 15.2995 211.399 15.4912 211.412 15.6823C211.406 15.8306 211.43 15.9787 211.484 16.117C211.538 16.2553 211.621 16.3809 211.726 16.4857C211.957 16.706 212.23 16.878 212.529 16.9918C212.842 17.1203 213.276 17.2649 213.839 17.4336C214.478 17.613 215.104 17.8385 215.711 18.1084C216.203 18.3416 216.632 18.6886 216.964 19.1207C217.331 19.6377 217.515 20.2626 217.486 20.8961C217.486 21.5137 217.317 22.1195 216.996 22.6474C216.648 23.2058 216.15 23.6543 215.558 23.9408C214.86 24.2794 214.091 24.4447 213.316 24.4228C212.547 24.4304 211.784 24.2801 211.075 23.981V23.981Z" fill="#2E2627"/>
<path d="M93.6668 34.5441V36.5123H95.9806V37.412H93.6668V39.4606H96.2698V40.3604H92.5742V33.6523H96.2698V34.5441H93.6668Z" fill="#2E2627"/>
<path d="M106.61 33.6523V40.3523H105.509V35.7652L103.469 40.3523H102.665L100.608 35.7652V40.3523H99.5078V33.6523H100.697L103.051 38.9063L105.389 33.6523H106.61Z" fill="#2E2627"/>
<path d="M114.427 36.6081C114.244 36.9331 113.963 37.1918 113.624 37.3472C113.202 37.5555 112.736 37.655 112.266 37.6364H111.053V40.3517H109.984V33.6518H112.298C112.747 33.638 113.192 33.7287 113.6 33.9169C113.932 34.0703 114.212 34.3191 114.403 34.6318C114.569 34.9348 114.656 35.2746 114.656 35.62C114.656 35.9654 114.569 36.3052 114.403 36.6081H114.427ZM113.23 36.4555C113.336 36.3516 113.419 36.2262 113.473 36.0876C113.528 35.9491 113.551 35.8006 113.543 35.6521C113.543 34.9211 113.126 34.5596 112.298 34.5596H111.085V36.7447H112.298C112.634 36.7679 112.966 36.6647 113.23 36.4555Z" fill="#2E2627"/>
<path d="M118.981 39.9835C118.462 39.6945 118.031 39.2696 117.735 38.7544C117.435 38.2152 117.277 37.6082 117.277 36.991C117.277 36.3738 117.435 35.7668 117.735 35.2277C118.03 34.7136 118.461 34.291 118.981 34.0066C119.505 33.7106 120.098 33.5582 120.7 33.5647C121.307 33.5573 121.906 33.7097 122.435 34.0066C122.952 34.2922 123.38 34.7147 123.672 35.2277C123.968 35.7685 124.123 36.3748 124.123 36.991C124.123 37.6072 123.968 38.2136 123.672 38.7544C123.381 39.2703 122.953 39.6957 122.435 39.9835C121.903 40.2742 121.306 40.4235 120.7 40.4173C120.099 40.4226 119.507 40.2732 118.981 39.9835V39.9835ZM121.889 39.1802C122.235 38.9751 122.514 38.6736 122.692 38.3125C122.888 37.9052 122.99 37.459 122.99 37.0071C122.99 36.5551 122.888 36.109 122.692 35.7016C122.512 35.3443 122.233 35.046 121.889 34.842C121.525 34.6422 121.115 34.5398 120.7 34.5448C120.287 34.5412 119.881 34.6435 119.519 34.842C119.175 35.0467 118.897 35.3448 118.716 35.7016C118.525 36.1105 118.427 36.5561 118.427 37.0071C118.427 37.4581 118.525 37.9037 118.716 38.3125C118.894 38.6731 119.173 38.9744 119.519 39.1802C119.878 39.3861 120.286 39.4915 120.7 39.4854C121.118 39.4865 121.528 39.3756 121.889 39.1641V39.1802Z" fill="#2E2627"/>
<path d="M135.861 33.6526L133.869 40.3525H132.631L131.217 35.2834L129.723 40.3525H128.494L126.59 33.6445H127.739L129.121 39.0993L130.631 33.6445H131.86L133.258 39.0752L134.656 33.6445L135.861 33.6526Z" fill="#2E2627"/>
<path d="M139.788 34.5441V36.5123H142.102V37.412H139.788V39.4606H142.391V40.3604H138.688V33.6523H142.391V34.5441H139.788Z" fill="#2E2627"/>
<path d="M149.15 40.3518L147.607 37.6686H146.804V40.3518H145.703V33.6518H148.017C148.469 33.6375 148.918 33.7311 149.326 33.925C149.661 34.0801 149.94 34.332 150.13 34.648C150.309 34.9548 150.401 35.3049 150.395 35.6602C150.4 36.0867 150.267 36.5035 150.017 36.8492C149.728 37.2253 149.311 37.4825 148.844 37.5722L150.507 40.3518H149.15ZM146.739 36.7929H147.953C148.291 36.8166 148.626 36.707 148.885 36.4877C148.987 36.3812 149.068 36.2554 149.122 36.1175C149.176 35.9795 149.201 35.8323 149.198 35.6843C149.203 35.5368 149.179 35.3896 149.127 35.2516C149.074 35.1136 148.995 34.9875 148.893 34.881C148.627 34.6691 148.291 34.5657 147.953 34.5917H146.739V36.7929Z" fill="#2E2627"/>
<path d="M154.788 33.6523V40.3523H153.695V33.6523H154.788Z" fill="#2E2627"/>
<path d="M163.675 40.3525H162.575L159.265 35.3476V40.3525H158.164V33.6445H159.265L162.575 38.6334V33.6445H163.675V40.3525Z" fill="#2E2627"/>
<path d="M171.926 35.5814C171.768 35.2614 171.515 34.9977 171.202 34.8263C170.874 34.6513 170.506 34.5628 170.134 34.5692C169.718 34.5616 169.308 34.6641 168.945 34.8664C168.601 35.0672 168.322 35.3628 168.142 35.718C167.935 36.1087 167.833 36.5457 167.844 36.9873C167.834 37.4313 167.936 37.8707 168.142 38.2646C168.32 38.6214 168.599 38.9176 168.945 39.1162C169.307 39.321 169.718 39.4263 170.134 39.4215C170.666 39.4449 171.186 39.2638 171.588 38.9153C171.973 38.5604 172.215 38.078 172.271 37.5577H169.756V36.682H173.452V37.5416C173.381 38.0549 173.191 38.5446 172.898 38.9716C172.595 39.4102 172.193 39.7709 171.725 40.024C171.231 40.2876 170.678 40.4204 170.118 40.4096C169.514 40.4169 168.919 40.2674 168.391 39.9758C167.876 39.6872 167.449 39.2654 167.153 38.7547C166.853 38.2155 166.695 37.6085 166.695 36.9913C166.695 36.3741 166.853 35.7671 167.153 35.228C167.448 34.7139 167.879 34.2913 168.399 34.0069C168.923 33.7102 169.516 33.5578 170.118 33.565C170.791 33.553 171.452 33.7373 172.022 34.0952C172.577 34.4433 173.001 34.9661 173.227 35.5814H171.926Z" fill="#2E2627"/>
<path d="M184.781 33.6526V34.5443H181.937V36.5205H184.154V37.4123H181.937V40.3445H180.836V33.6445L184.781 33.6526Z" fill="#2E2627"/>
<path d="M188.844 33.6523V37.9262C188.828 38.1332 188.855 38.3413 188.922 38.5376C188.99 38.7339 189.098 38.9141 189.238 39.067C189.558 39.3165 189.953 39.4519 190.359 39.4519C190.765 39.4519 191.159 39.3165 191.48 39.067C191.621 38.9145 191.73 38.7345 191.799 38.5383C191.868 38.3421 191.896 38.1337 191.881 37.9262V33.6523H192.974V37.9021C192.992 38.3897 192.869 38.8722 192.62 39.2919C192.39 39.6615 192.058 39.957 191.664 40.1434C191.248 40.3234 190.8 40.4162 190.347 40.4162C189.894 40.4162 189.445 40.3234 189.029 40.1434C188.64 39.9564 188.314 39.6606 188.089 39.2919C187.846 38.87 187.727 38.3885 187.744 37.9021V33.6523H188.844Z" fill="#2E2627"/>
<path d="M200.659 33.6526V34.5443H198.875V40.3445H197.775V34.5443H196.023V33.6445L200.659 33.6526Z" fill="#2E2627"/>
<path d="M204.782 33.6523V37.9262C204.767 38.1337 204.795 38.3421 204.864 38.5383C204.933 38.7345 205.042 38.9145 205.183 39.067C205.335 39.2015 205.512 39.3047 205.703 39.3709C205.895 39.4371 206.098 39.4648 206.3 39.4526C206.711 39.4726 207.113 39.3346 207.425 39.067C207.566 38.9145 207.675 38.7345 207.744 38.5383C207.813 38.3421 207.841 38.1337 207.827 37.9262V33.6523H208.919V37.9021C208.934 38.3893 208.811 38.8709 208.566 39.2919C208.335 39.6615 208.003 39.957 207.61 40.1434C207.194 40.3234 206.745 40.4162 206.292 40.4162C205.839 40.4162 205.39 40.3234 204.975 40.1434C204.585 39.9564 204.259 39.6606 204.035 39.2919C203.792 38.87 203.672 38.3885 203.689 37.9021V33.6523H204.782Z" fill="#2E2627"/>
<path d="M215.759 40.352L214.217 37.6688H213.413V40.352H212.312V33.652H214.626C215.076 33.6367 215.522 33.7304 215.928 33.9251C216.263 34.079 216.543 34.3312 216.731 34.6482C216.91 34.955 217.002 35.3051 216.996 35.6604C216.997 36.0863 216.865 36.5019 216.619 36.8493C216.328 37.2238 215.911 37.4806 215.446 37.5724L217.101 40.352H215.759ZM213.349 36.7931H214.562C214.901 36.8168 215.235 36.7072 215.494 36.4878C215.597 36.3814 215.677 36.2555 215.731 36.1176C215.785 35.9797 215.811 35.8325 215.807 35.6845C215.814 35.5362 215.789 35.3881 215.735 35.2498C215.681 35.1115 215.599 34.9859 215.494 34.8811C215.232 34.6683 214.898 34.5647 214.562 34.5919H213.381L213.349 36.7931Z" fill="#2E2627"/>
<path d="M221.398 34.5441V36.5123H223.711V37.412H221.398V39.4606H224V40.3604H220.297V33.6523H224V34.5441H221.398Z" fill="#2E2627"/>
<path d="M224 29.5547H91.5859V30.358H224V29.5547Z" fill="#FF2A2A"/>
<path d="M224 44.0156H91.5859V44.819H224V44.0156Z" fill="#FF2A2A"/>
</g>
<defs>
<clipPath id="clip0_1704_2231">
<rect width="224" height="57.1586" fill="white"/>
</clipPath>
</defs>
</svg>
