<svg xmlns="http://www.w3.org/2000/svg" width="84" height="120" viewBox="0 0 84 120">
  <g id="Logo_Header" data-name="Logo Header" transform="translate(-11.088 0.037)">
    <text id="STATUS_200_Pvt_Ltd." data-name="STATUS 200
Pvt Ltd." transform="translate(53.088 99.963)" font-size="14" font-family="Poppins-SemiBold, Poppins" font-weight="600"><tspan x="-41" y="0">STATUS 200</tspan><tspan x="-25" y="15">Pvt Ltd.</tspan></text>
    <path id="Path_37" data-name="Path 37" d="M49.771,24.105a1.75,1.75,0,0,1-.718-.157l-6.8-2.957a1.859,1.859,0,0,1-.99-1.026,1.81,1.81,0,0,1,0-1.394l6.258-14.3a1.81,1.81,0,0,1,2.414-.941h0l6.8,2.951A1.81,1.81,0,0,1,57.683,8.7L51.449,22.983a1.983,1.983,0,0,1-1.678,1.122Zm-7.6-6.089-.35.809a1.265,1.265,0,0,0,.658,1.629l6.813,2.963a1.207,1.207,0,0,0,1.629-.64l.356-.809Zm.235-.531L51.5,21.438,56.778,9.29,47.689,5.337Zm5.51-12.673,9.088,3.953.139-.314A1.243,1.243,0,0,0,56.5,6.822L49.687,3.853a1.207,1.207,0,0,0-1.629.64Zm-1.654,17.12a.9.9,0,1,1,.374-1.714h0a.845.845,0,0,1,.477.489.881.881,0,0,1,0,.688.923.923,0,0,1-.489.477A.9.9,0,0,1,46.265,21.933Zm0-1.207a.32.32,0,0,0-.29.193.332.332,0,0,0,0,.241.344.344,0,0,0,.169.175.32.32,0,0,0,.416-.163.308.308,0,0,0-.163-.416h0a.326.326,0,0,0-.133-.036Zm7.6-13.819L51.449,5.844l.235-.531L54.1,6.375Z" transform="translate(-12.705 -1.273)"/>
    <path id="Path_38" data-name="Path 38" d="M73.148,50.009h.972l.6,2.287h-2.2L73.13,50ZM84.5,47.1a13.644,13.644,0,0,1,0,1.647c-.06.6-.6.459-1.147.459H63.86c-.561,0-1.062.109-1.1-.5a14.348,14.348,0,0,1,0-1.611H84.481Zm-21.725-.827c-.054-1.907,0-3.88,0-5.787,0-.821-.078-5.353.06-5.745.3-.857,1.207-.682,2.209-.682H82.369c.966,0,1.853-.139,2.112.742.109.386.036,10.76.042,11.466H62.8Zm19.54,3.735a7.525,7.525,0,0,0,2.275-.133c.658-.326.73-.8.73-1.708V36.1a3.157,3.157,0,0,0-.344-2.052,1.907,1.907,0,0,0-1.654-.76H63.909a1.853,1.853,0,0,0-1.647.8,3.526,3.526,0,0,0-.308,2.088V48.247c0,.6,0,1.3.754,1.641a31.452,31.452,0,0,0,4.737.121h4.828a7.917,7.917,0,0,1-.3,1.207c0,.115-.223,1.05-.356,1.08h-1.37v.8H77.01v-.778H75.58c-.115-.489-.6-1.949-.6-2.293Z" transform="translate(-20.959 -13.212)" fill-rule="evenodd"/>
    <path id="Path_39" data-name="Path 39" d="M43.424,48.41,31.53,47.444l.791-9.794,11.894.966Zm-11.273-1.5,10.742.869.471-5.775-10.742-.863Zm.513-6.349,10.742.869.187-2.287-10.742-.869Zm6.747,5.908-.392-.422L40.5,44.674l-1.617-1.81.428-.386,2,2.209ZM37,46.3l-.525-.235,1.557-3.53.531.235Zm-1.388-.133-1.593-2.046,2.329-1.859.362.453-1.877,1.5,1.243,1.593Z" transform="translate(-8.899 -14.944)"/>
    <path id="Path_40" data-name="Path 40" d="M50.581,80.285a4.653,4.653,0,1,1,4.647-4.466l4.954,1.128a.842.842,0,0,1-.374,1.641l-4.954-1.128a4.665,4.665,0,0,1-4.273,2.824Zm0-8.72a4.067,4.067,0,1,0,3.838,5.461l.091-.235L59.941,78a.253.253,0,0,0,.314-.193.26.26,0,0,0-.2-.314l-5.431-1.243v-.253a4.061,4.061,0,0,0-3.144-4.363,3.911,3.911,0,0,0-.905-.036Zm0,7.845A3.766,3.766,0,1,1,54.323,75.9v.048l-.247,1.08A3.735,3.735,0,0,1,50.593,79.4Zm0-6.952a3.182,3.182,0,1,0,2.951,4.393l.229-1.032a3.21,3.21,0,0,0-3.186-3.379Z" transform="translate(-14.607 -28.16)"/>
    <path id="Path_41" data-name="Path 41" d="M61.553,89.014a1.883,1.883,0,1,1,1.883-1.883,1.883,1.883,0,0,1-1.883,1.883Zm0-3.186a1.3,1.3,0,1,0,.941.371A1.3,1.3,0,0,0,61.553,85.828Zm6.861,2.7A1.883,1.883,0,1,1,70.3,86.643a1.883,1.883,0,0,1-1.883,1.883Zm0-3.186a1.291,1.291,0,1,1,0,.024Z" transform="translate(-20.057 -33.624)"/>
    <path id="Path_42" data-name="Path 42" d="M99.111,79.214h-.223a3.814,3.814,0,0,1-2.812-1.919,9.891,9.891,0,0,1-1.092-2.366v-.072a9.432,9.432,0,0,1-.3-1.207,9.825,9.825,0,0,1-.084-3.422c.5-3.017,2.348-2.915,3.573-2.824a3.765,3.765,0,0,0,.863,0c1.3-.217,1.515-1.207,1.768-2.323.272-1.207.6-2.613,2.414-2.9a7.164,7.164,0,0,1,4.936,1.81c1.328,1.207,2.529,2.414,2.607,4.46a3.729,3.729,0,0,1-.072,1.044c-.38,1.72-1.895,1.563-3.355,1.418a6.946,6.946,0,0,0-2.414,0,5.238,5.238,0,0,0-3.355,3.392,11.071,11.071,0,0,0-.32,1.551C100.976,77.355,100.668,79.214,99.111,79.214ZM97.4,67.923c-1,0-1.919.326-2.263,2.372a9.432,9.432,0,0,0,.091,3.229,8.376,8.376,0,0,0,.278,1.135v.072a9.692,9.692,0,0,0,1.032,2.239h0a3.3,3.3,0,0,0,2.414,1.666c1.128.115,1.406-1.062,1.7-2.879a12.021,12.021,0,0,1,.344-1.629,5.86,5.86,0,0,1,3.754-3.778,7.6,7.6,0,0,1,2.637-.042c1.569.163,2.468.2,2.728-.966a3.18,3.18,0,0,0,.06-.9c-.066-1.81-1.135-2.891-2.414-4.049a6.684,6.684,0,0,0-4.46-1.654c-1.466.229-1.69,1.261-1.955,2.45s-.555,2.492-2.239,2.776a4.622,4.622,0,0,1-1,0C97.862,67.941,97.627,67.923,97.4,67.923Zm1.563,6.638-.754-1.141-1,.857-1.044-1.569,1.008-.845-.76-1.141,1.454-1.207.175.272c.151.223.266.4.356.555a3.14,3.14,0,0,0,.223.344c.072-.054.193-.163.308-.272l.5-.435.247-.205,1.044,1.569-.2.163c-.205.175-.374.308-.513.416a2.488,2.488,0,0,0-.356.3,2.341,2.341,0,0,0,.253.386l.374.543.139.211Zm-.634-2,.76,1.141.555-.465-.223-.308c-.525-.742-.5-.923.223-1.485l.3-.235-.392-.6-.241.211c-.338.308-.531.477-.785.441s-.386-.253-.6-.64l-.163-.272-.555.465.754,1.141-1,.839.4.6Zm7.012-3.476a.929.929,0,0,1-.772-.435h0a2.245,2.245,0,0,1-.127-.235,1.285,1.285,0,0,1-.181.181,1.116,1.116,0,0,1-.839.223,1,1,0,0,1-.664-.422,1.261,1.261,0,0,1,.332-1.726,1.383,1.383,0,0,1,.163-.084,1.315,1.315,0,0,1-.235-.272h0a1.207,1.207,0,0,1,.386-1.635,1,1,0,0,1,1.442.368l.072.133a1.159,1.159,0,0,1,.8-.435.99.99,0,0,1,.905.5,1.3,1.3,0,0,1-.235,1.641h0a1.056,1.056,0,0,1-.284.175,1.141,1.141,0,0,1,.217.253,1.153,1.153,0,0,1-.368,1.617,1.1,1.1,0,0,1-.61.169Zm-.284-.736a.392.392,0,0,0,.6.072.6.6,0,0,0,.205-.815c-.253-.386-.531-.259-.64-.187a.658.658,0,0,0-.145.929ZM103.631,67.1a.392.392,0,0,0-.217.072.676.676,0,0,0-.169.923h0a.4.4,0,0,0,.278.175.513.513,0,0,0,.386-.109.6.6,0,0,0,.157-.748.567.567,0,0,0-.441-.314Zm.646-.32a1.376,1.376,0,0,1,.272.308.6.6,0,0,1,.06.1,1.08,1.08,0,0,1,.272-.253.748.748,0,0,1,.181-.1,1.527,1.527,0,0,1-.266-.308.976.976,0,0,1-.06-.109,1.165,1.165,0,0,1-.284.259,1.206,1.206,0,0,1-.181.1Zm1.5-1.442h0a.652.652,0,0,0-.483.374.507.507,0,0,0,0,.5.646.646,0,0,0,.41.308.435.435,0,0,0,.326-.1.748.748,0,0,0,.127-.833.453.453,0,0,0-.386-.247ZM103.5,66c.229.35.471.3.6.193a.6.6,0,0,0,.235-.815c-.193-.284-.41-.356-.64-.205a.6.6,0,0,0-.223.827Z" transform="translate(-33.863 -24.656)"/>
    <path id="Path_43" data-name="Path 43" d="M65.628,47.711A3.313,3.313,0,1,1,68.941,44.4a3.313,3.313,0,0,1-3.313,3.313Zm0-6.035a2.734,2.734,0,1,0,0-.006Zm.38,4.333L64.5,45.357l.229-.537.929.4.712-2.112.555.181Zm8.449-3.9h0c-1.267-.048-1.207-2.468-1.207-2.571a5.293,5.293,0,0,1,2.112-3.85,4.677,4.677,0,0,0,1.267-1.6,2.088,2.088,0,0,0-.121-1.6c-.175-.447-.368-.96.187-1.424a.839.839,0,0,1,1.038-.1c.73.471,1.122,2.209.772,3.434a4.743,4.743,0,0,1-1.684,2.547c-2.112,1.859-1.732,2.9-1.479,3.585a1.394,1.394,0,0,1,.133.688,1.273,1.273,0,0,1-.416.754h0a1.406,1.406,0,0,1-.573.133ZM77.263,31.4a.38.38,0,0,0-.217.1c-.223.187-.205.3,0,.772a2.667,2.667,0,0,1,.127,2,4.985,4.985,0,0,1-1.418,1.81,4.734,4.734,0,0,0-1.931,3.446c0,.8.217,1.961.676,1.979l.223-.036a.748.748,0,0,0,.175-.362,1.207,1.207,0,0,0-.109-.4c-.284-.785-.766-2.1,1.647-4.224a4.134,4.134,0,0,0,1.509-2.269,3.1,3.1,0,0,0-.531-2.788.235.235,0,0,0-.121-.03ZM34.531,36.794A1.575,1.575,0,1,1,36.1,35.219a1.575,1.575,0,0,1-1.569,1.575Zm0-2.565a1,1,0,1,0,.99.99,1,1,0,0,0-.99-.99Zm18.8-30.7a1.43,1.43,0,1,1,1.424-1.424A1.43,1.43,0,0,1,53.335,3.53Zm0-2.275a.851.851,0,1,0,.845.851.851.851,0,0,0-.845-.851Z" transform="translate(-9.462 -0.28)"/>
    <path id="Path_44" data-name="Path 44" d="M90.493,6.8a2.305,2.305,0,1,1,1.64-.673,2.305,2.305,0,0,1-1.64.673Zm0-4.025a1.726,1.726,0,1,0,1.738,1.714A1.726,1.726,0,0,0,90.493,2.775Z" transform="translate(-31.37 -0.883)"/>
    <path id="Path_45" data-name="Path 45" d="M73.37,41.674a.929.929,0,0,0,.6-.193.887.887,0,0,0,.3-.507,5.65,5.65,0,0,0,.078-1.1V38.838a2.106,2.106,0,0,1,.157-.6,1.285,1.285,0,0,1,.284-.386,1.358,1.358,0,0,1,.428-.217,2.685,2.685,0,0,1,.6-.042h.266v.736h-.145a.869.869,0,0,0-.64.175,1.322,1.322,0,0,0-.157.785,12.764,12.764,0,0,1-.054,1.551,1.448,1.448,0,0,1-.947,1.213,1.454,1.454,0,0,1,.754.658,3.277,3.277,0,0,1,.235,1.448c0,.6,0,.972,0,1.086a.688.688,0,0,0,.193.447,1,1,0,0,0,.6.127h.145v.736h-.266a2.209,2.209,0,0,1-.664-.072,1.08,1.08,0,0,1-.495-.35,1.249,1.249,0,0,1-.259-.6,9.16,9.16,0,0,1-.06-1.207,6.589,6.589,0,0,0-.078-1.165.857.857,0,0,0-.887-.706Zm8.545,0v.772a.966.966,0,0,0-.6.193.905.905,0,0,0-.3.507,6.034,6.034,0,0,0-.084,1.1c0,.525,0,.863,0,1.032a2.106,2.106,0,0,1-.157.6,1.207,1.207,0,0,1-.29.38,1.147,1.147,0,0,1-.428.217,2.619,2.619,0,0,1-.6.048h-.266v-.706h.145a.887.887,0,0,0,.664-.157,1.328,1.328,0,0,0,.157-.791,14.593,14.593,0,0,1,.042-1.485,1.81,1.81,0,0,1,.3-.827,1.533,1.533,0,0,1,.646-.519,1.623,1.623,0,0,1-.742-.664,3.4,3.4,0,0,1-.217-1.436V38.856a.6.6,0,0,0-.187-.435,1,1,0,0,0-.6-.127h-.2v-.736h.259a2.154,2.154,0,0,1,.664.072,1.1,1.1,0,0,1,.5.35,1.243,1.243,0,0,1,.253.6,8.251,8.251,0,0,1,.06,1.207A6.337,6.337,0,0,0,81,40.95a.905.905,0,0,0,.3.513.966.966,0,0,0,.6.193Z" transform="translate(-25.49 -14.907)" fill-rule="evenodd"/>
    <path id="Path_46" data-name="Path 46" d="M35.36,30.24a1.424,1.424,0,1,1,1.011-.415A1.43,1.43,0,0,1,35.36,30.24Zm0-2.275a.851.851,0,1,0,.851.851.851.851,0,0,0-.851-.851Z" transform="translate(-9.851 -10.872)"/>
    <path id="Path_47" data-name="Path 47" d="M112.052,44.832,103,37.083l6.4-7.483,9.052,7.767ZM103.8,36.986,111.986,44l3.772-4.4-8.159-7Zm4.146-4.828,8.207,7.012,1.5-1.744-8.183-6.982Zm1.985,8.744-.066-.573,2-.241-.259-2.414.6-.06.326,2.963Zm-1.81-1.545-.29-.5,3.331-1.937.3.5Zm-1.044-.923-.091-2.559,2.981-.139v.6l-2.414.109.066,2.022Z" transform="translate(-37.239 -11.752)"/>
    <path id="Path_48" data-name="Path 48" d="M118.065,28.971a2.305,2.305,0,1,1,2.305-2.3,2.305,2.305,0,0,1-2.305,2.3Zm0-4.025a1.726,1.726,0,1,0,1.726,1.726A1.726,1.726,0,0,0,118.065,24.945Z" transform="translate(-42.299 -9.674)"/>
    <path id="Path_49" data-name="Path 49" d="M54.855,56.81a1.575,1.575,0,1,1,1.575-1.569,1.575,1.575,0,0,1-1.575,1.569Zm0-2.565a1,1,0,1,0,1,1A1,1,0,0,0,54.855,54.245Z" transform="translate(-17.523 -21.292)"/>
    <path id="Path_50" data-name="Path 50" d="M55.941,67.332a2.275,2.275,0,1,1,1.613-.664,2.281,2.281,0,0,1-1.613.664Zm0-3.977a1.7,1.7,0,1,0,1.7,1.7,1.7,1.7,0,0,0-1.7-1.7Z" transform="translate(-17.674 -24.905)"/>
    <path id="Path_51" data-name="Path 51" d="M122.631,58.666a1.883,1.883,0,1,1,1.343-.551A1.883,1.883,0,0,1,122.631,58.666Zm0-3.186a1.3,1.3,0,1,0,1.291,1.291A1.3,1.3,0,0,0,122.631,55.479Z" transform="translate(-44.281 -21.784)"/>
    <path id="Path_52" data-name="Path 52" d="M111.225,59.417a1.509,1.509,0,1,1,1.5-1.5A1.509,1.509,0,0,1,111.225,59.417Zm0-2.414a.386.386,0,1,0,0-.018Z" transform="translate(-39.9 -22.379)"/>
    <path id="Path_53" data-name="Path 53" d="M83.552,111.935H62.66v-5.473H83.552Zm-20.313-.6H82.973v-4.315H63.239Zm8.563-1.267h-.6V108.29h.6Zm-2.746,0h-.6V108.29h.6Zm-2.74,0h-.6V108.29h.6Zm14.6-.6H74.066v-.6h6.849Zm2.637-3.53H62.66v-5.473H83.552Zm-20.313-.6H82.973v-4.315H63.239Zm8.563-1.267h-.6v-1.774h.6Zm-2.746,0h-.6v-1.774h.6Zm-2.74,0h-.6v-1.774h.6Zm14.6-.6H74.066v-.6h6.849Zm2.637-3.621H62.66v-5.4H83.552Zm-20.313-.6H82.973V95.019H63.239ZM71.8,97.964h-.6V96.293h.6Zm-2.746,0h-.6V96.293h.6Zm-2.74,0h-.6V96.293h.6Zm14.6-.6H74.066v-.6h6.849Z" transform="translate(-21.243 -37.463)"/>
    <path id="Path_54" data-name="Path 54" d="M101.037,21.453c-1.207,0-1.539-1.177-1.81-2.227a5.492,5.492,0,0,0-.736-1.853A4.267,4.267,0,0,0,94.9,15.817a8.865,8.865,0,0,0-1.285.211c-1.316.272-2.957.6-3.349-.839a3.235,3.235,0,0,1,.652-2.788h0a8.672,8.672,0,0,1,1.515-1.557l.054-.03a6.687,6.687,0,0,1,.857-.6,8.2,8.2,0,0,1,2.631-1.092c2.547-.525,3.017.966,3.3,1.955a3.379,3.379,0,0,0,.241.658c.513.863,1.207.809,2.275.646s2.221-.338,3.017,1.044a6.164,6.164,0,0,1,.084,4.387,5.18,5.18,0,0,1-2.691,3.367,3.132,3.132,0,0,1-.839.259A2.076,2.076,0,0,1,101.037,21.453Zm-5.9-6.228a4.894,4.894,0,0,1,3.808,1.81,6.264,6.264,0,0,1,.827,2.046c.344,1.267.567,1.919,1.5,1.78a2.577,2.577,0,0,0,.706-.217,4.743,4.743,0,0,0,2.378-3.017,5.465,5.465,0,0,0-.048-3.892c-.543-.947-1.442-.911-2.414-.76s-2.118.32-2.854-.923a3.427,3.427,0,0,1-.3-.785c-.3-.972-.6-1.979-2.631-1.557a7.6,7.6,0,0,0-2.414,1.014,7.434,7.434,0,0,0-.791.549l-.048.042a7.917,7.917,0,0,0-1.412,1.454h0a2.661,2.661,0,0,0-.6,2.269c.229.863,1.207.724,2.667.422a9.752,9.752,0,0,1,1.394-.223Zm5.854,2.583a1.171,1.171,0,0,1-.646-.205.839.839,0,0,1-.241-1.207h0l.1-.121-.127-.066a.929.929,0,0,1-.447-.6.875.875,0,0,1,.139-.682h0a1.068,1.068,0,0,1,.984-.453,1.05,1.05,0,0,1,.6.241,1.5,1.5,0,0,1,.121-.205h0a.972.972,0,0,1,.911-.392,1,1,0,0,1,.833.543.911.911,0,0,1-.139.941l-.036.048a.972.972,0,0,1,.531.483.881.881,0,0,1-.121.9,1.147,1.147,0,0,1-1.37.308,1.273,1.273,0,0,1-.175-.121,1.436,1.436,0,0,1-.109.181A.929.929,0,0,1,100.994,17.808Zm-.41-1.074a.266.266,0,0,0,.1.392.434.434,0,0,0,.6-.066c.187-.266.06-.416-.036-.483a.483.483,0,0,0-.688.157Zm2-.6a.344.344,0,0,0-.29.139.489.489,0,0,0-.109.368.3.3,0,0,0,.157.187h0a.555.555,0,0,0,.6-.139.308.308,0,0,0,.072-.32.483.483,0,0,0-.386-.229Zm-1.207-.145a1,1,0,0,1,.223.121l.084.06a1.207,1.207,0,0,1,.133-.235h0a1.207,1.207,0,0,1-.3-.187,1.443,1.443,0,0,1-.139.241Zm-.724-.947a.5.5,0,0,0-.416.211h0a.314.314,0,0,0-.042.223.392.392,0,0,0,.175.235.441.441,0,0,0,.561-.066.453.453,0,0,0,.1-.392.392.392,0,0,0-.326-.193Zm1.605-.362a.4.4,0,0,0-.338.157h0a.344.344,0,0,0-.078.344.447.447,0,0,0,.368.217.42.42,0,0,0,.459-.507.465.465,0,0,0-.362-.211Zm-6.958,0-1.454-.8.652-.929-.947-.525.96-1.352.947.525.646-.923,1.454.809-.187.266q-.193.266-.326.434l-.169.229.253.133.489.253.284.157-.96,1.358-.229-.127c-.193-.109-.35-.2-.471-.278a2.5,2.5,0,0,0-.3-.169,2.749,2.749,0,0,0-.193.284c-.084.121-.181.272-.308.447Zm-.6-1,.435.235.145-.217c.435-.658.6-.694,1.279-.29l.229.139.284-.4-.187-.1c-.35-.175-.543-.278-.6-.507s.078-.4.32-.718l.121-.163-.435-.247-.652.923-.947-.525-.284.4.941.525Z" transform="translate(-32.155 -3.587)"/>
    <path id="Path_55" data-name="Path 55" d="M110.753,82.755a1.5,1.5,0,1,1,1.5-1.5A1.5,1.5,0,0,1,110.753,82.755Zm0-2.414a.93.93,0,1,0,0-.012Z" transform="translate(-39.717 -31.638)"/>
    <path id="Path_56" data-name="Path 56" d="M41.8,67a1.575,1.575,0,0,1-1.533-1.913L38.659,64.4a1.551,1.551,0,0,1-1.068.422,1.575,1.575,0,1,1,0-3.144,1.557,1.557,0,0,1,1.014.374l1.666-.736a1.37,1.37,0,0,1-.042-.356,1.569,1.569,0,1,1,.272.887l-1.515.682a1.575,1.575,0,0,1,0,1.406l1.485.6a1.569,1.569,0,1,1,1.3,2.414Zm0-2.565a.984.984,0,1,1,0,.012ZM37.573,62.26a3.475,3.475,0,1,0,.018.012ZM41.8,59.972a.99.99,0,1,1,0,.012Z" transform="translate(-10.639 -23.568)"/>
    <path id="Path_57" data-name="Path 57" d="M56.413,43.326A1.883,1.883,0,1,1,58.3,41.443a1.883,1.883,0,0,1-1.883,1.883Zm0-3.186a1.3,1.3,0,1,0,1.3,1.3,1.3,1.3,0,0,0-1.3-1.3Z" transform="translate(-18.019 -15.701)"/>
    <path id="Path_58" data-name="Path 58" d="M73.144,130.22c-5.848,0-10.434-2.317-10.434-5.28v-.29H83.56v.29C83.56,127.879,78.974,130.22,73.144,130.22Zm-9.831-4.991c.314,2.456,4.6,4.411,9.831,4.411s9.517-1.955,9.837-4.411Z" transform="translate(-21.263 -49.442)"/>
    <path id="Path_59" data-name="Path 59" d="M41.61,17.7a1.424,1.424,0,1,1,1.011-.415A1.43,1.43,0,0,1,41.61,17.7Zm0-2.275a.851.851,0,1,0,.617.241.851.851,0,0,0-.617-.241Z" transform="translate(-12.329 -5.899)"/>
    <path id="Path_60" data-name="Path 60" d="M93.006,24.517a.471.471,0,0,0,.314.1.44.44,0,0,0,.29-.121,3.3,3.3,0,0,0,.374-.447c.163-.223.272-.368.332-.434a1.026,1.026,0,0,1,.259-.223.664.664,0,0,1,.241-.078.646.646,0,0,1,.247.042,1.6,1.6,0,0,1,.266.157l.109.084-.229.314-.06-.042a.477.477,0,0,0-.326-.127q-.127,0-.308.29a5.92,5.92,0,0,1-.507.646.923.923,0,0,1-.362.241.893.893,0,0,1-.422,0,.779.779,0,0,1,.121.519,1.81,1.81,0,0,1-.35.706l-.332.471a.338.338,0,0,0-.054.247.525.525,0,0,0,.217.235l.06.048-.229.314-.115-.109a1.153,1.153,0,0,1-.259-.241.6.6,0,0,1-.1-.3.646.646,0,0,1,.078-.338,4.38,4.38,0,0,1,.35-.537,3.742,3.742,0,0,0,.326-.525.519.519,0,0,0,0-.314.531.531,0,0,0-.193-.266l.235-.326Zm3.657,2.643-.235.326a.5.5,0,0,0-.314-.1.507.507,0,0,0-.29.121,3.3,3.3,0,0,0-.374.447q-.247.332-.326.435a1.038,1.038,0,0,1-.266.223.579.579,0,0,1-.489.036,1.358,1.358,0,0,1-.266-.163l-.115-.078.229-.32.06.048a.489.489,0,0,0,.332.127c.084,0,.187-.115.314-.29a4.694,4.694,0,0,1,.471-.6,1.032,1.032,0,0,1,.386-.266.791.791,0,0,1,.428,0,.845.845,0,0,1-.121-.531,1.72,1.72,0,0,1,.35-.682l.332-.471a.326.326,0,0,0,.054-.241.567.567,0,0,0-.217-.241l-.06-.042.223-.32.115.084a1.165,1.165,0,0,1,.259.235.555.555,0,0,1,.109.3.676.676,0,0,1-.084.344,4.623,4.623,0,0,1-.344.537,2.837,2.837,0,0,0-.326.525.459.459,0,0,0,0,.308.519.519,0,0,0,.193.272Z" transform="translate(-32.948 -9.258)" fill-rule="evenodd"/>
    <path id="Path_61" data-name="Path 61" d="M73.849,18.452H73.8a.272.272,0,0,1-.2-.133l-3.017-4.828v-.048h0a.3.3,0,0,1,0-.145l1.189-9.692h0l.109-.845a3.114,3.114,0,0,1,3.47-2.776l2.239.3A3.126,3.126,0,0,1,80.3,3.763L80.155,4.97h0l-.169,1.352a.241.241,0,0,1,0,.133.266.266,0,0,1-.036.1L79,14.245v.072a.3.3,0,0,1-.109.193l-4.828,3.874a.29.29,0,0,1-.217.066Zm-.766-2.076.839,1.358,1.261-1.008Zm-.4-.658,3.017.507a.2.2,0,0,1,.078,0l2.474-1.979a2.945,2.945,0,0,0-3.536.157l-.054.036a.314.314,0,0,1-.1.036h-.109a.453.453,0,0,1-.109-.048.284.284,0,0,1-.078-.091h0a2.3,2.3,0,0,0-2.969-.875Zm3.892-2.535a3.766,3.766,0,0,1,1.9.543l.893-7.1L76,6.056l-1.092,7.561a3.567,3.567,0,0,1,1.678-.435Zm-4.224-.477a2.752,2.752,0,0,1,1.985.8l1.086-7.537-3.289-.549-.923,7.471a3.983,3.983,0,0,1,1.147-.181Zm3.729-7.242,3.349.561.115-.893L76.2,4.578ZM72.2,4.813l3.307.6.151-.917-3.325-.555Zm.181-1.472,7.242,1.207.109-.887A2.541,2.541,0,0,0,77.524.83L75.279.589A2.541,2.541,0,0,0,72.455,2.8Z" transform="translate(-24.382 0)"/>
    <path id="Path_62" data-name="Path 62" d="M77.872,82.491h-.06c-.253-.048-.356-.314-.428-1.056a.163.163,0,0,1,0-.054,1.026,1.026,0,0,0-.64-.966h0a2.734,2.734,0,0,1-1.406-1.7,1.21,1.21,0,0,1,0-.145h-.054s-.76-.549-1.907-1.448l-.048-.042a63.736,63.736,0,0,1-7.435-6.825c-.229-.3-.555-.809-.3-1.116s.688-.2,1.641.284a68.191,68.191,0,0,1,7.785,5.6h.036c.6.507,1.207,1.032,1.756,1.569a1.81,1.81,0,0,1,.8-.1,2.474,2.474,0,0,1,1.75,1.394.181.181,0,0,1,0,.048,4.369,4.369,0,0,1-1.243,4.381A.35.35,0,0,1,77.872,82.491Zm.042-1.092a.888.888,0,0,0,.042.362,3.862,3.862,0,0,0,.953-3.621,1.991,1.991,0,0,0-1.34-1.11,1.7,1.7,0,0,0-1.249.483,1.31,1.31,0,0,0-.471,1.128,2.239,2.239,0,0,0,1.135,1.322,1.533,1.533,0,0,1,.923,1.436Zm-4.128-4.647c.772.6,1.346,1.026,1.617,1.207a2.245,2.245,0,0,1,.543-.833,2.414,2.414,0,0,1,.374-.3c-.483-.447-.984-.887-1.485-1.316a2.028,2.028,0,0,0-1.056,1.237Zm-7.73-7.242a2.535,2.535,0,0,0,.241.4A63.026,63.026,0,0,0,73.346,76.4,2.535,2.535,0,0,1,74.4,75.2a67.693,67.693,0,0,0-7.393-5.317,3.886,3.886,0,0,0-.96-.368Z" transform="translate(-22.37 -27.361)"/>
    <path id="Path_63" data-name="Path 63" d="M77.93,28.215a1.436,1.436,0,1,1,1.016-.427,1.43,1.43,0,0,1-1.016.427Zm0-2.275a.851.851,0,1,0,.851.827A.851.851,0,0,0,77.93,25.94ZM65.746,27.75a1.429,1.429,0,1,0,0-.006Zm0-2.275a.85.85,0,1,0,0-.006Z" transform="translate(-21.897 -9.884)"/>
    <path id="Path_64" data-name="Path 64" d="M75.713,70.105a.8.8,0,1,1,.8-.8A.8.8,0,0,1,75.713,70.105Zm0-1.273a.477.477,0,1,0,.477.477A.477.477,0,0,0,75.713,68.832Z" transform="translate(-26.1 -27.177)"/>
  </g>
</svg>
