<?xml version="1.0" encoding="utf-8"?>
<!-- Generator: Adobe Illustrator 26.0.1, SVG Export Plug-In . SVG Version: 6.00 Build 0)  -->
<svg version="1.1"
	 id="svg23" sodipodi:docname="logo.svg" xmlns:inkscape="http://www.inkscape.org/namespaces/inkscape" xmlns:sodipodi="http://sodipodi.sourceforge.net/DTD/sodipodi-0.dtd" xmlns:svg="http://www.w3.org/2000/svg"
	 xmlns="http://www.w3.org/2000/svg" xmlns:xlink="http://www.w3.org/1999/xlink" x="0px" y="0px" viewBox="0 0 308.8 296.4"
	 style="enable-background:new 0 0 308.8 296.4;" xml:space="preserve">
<style type="text/css">
	.st0{fill:none;stroke:#606060;stroke-miterlimit:10;}
	.st1{fill:#FFFFFF;}
	.st2{fill:none;}
	.st3{fill:#915EFF;}
</style>
<sodipodi:namedview  bordercolor="#000000" borderopacity="0.25" id="namedview25" inkscape:deskcolor="#d1d1d1" inkscape:pagecheckerboard="0" inkscape:pageopacity="0.0" inkscape:showpageshadow="2" pagecolor="#ffffff">
	</sodipodi:namedview>
<g id="SvgjsG2685" transform="matrix(0.9820592540669653,0,0,0.9820592540669653,-0.054560523427421584,0)">
	<g id="g17">
		<path id="path3" d="M57.6,35.9H59l-1.2-0.6L57.6,35.9z M61.4,34.2c0,0.3,0,0.3,0.3,0.3l1.2-0.9C62.2,33.3,61.9,33.3,61.4,34.2z
			 M50,42l0.9-0.6c0.3-0.3,0.3-0.6,0.3-0.6h-0.6L50,42C49.7,41.7,49.7,42,50,42z M56.4,33.6h-0.3l-0.6,0.6h0.9L56.4,33.6z
			 M50.3,40.6l1.7-1.5c0.3-0.3,0.3-0.6,0.3-0.9h-0.9L48,41.4l-0.6,1.2l2-1.7L50.3,40.6z"/>
		<path id="path5" d="M28.1,64.2v-0.6c0.2-1.3,1-2.4,2-3.2l2.6-1.7l1.5-1.7l2-2l1.2-1.2l1.2-0.9c1-0.6,1.9-1.5,2.3-2.6l1.2-1.5
			c1.1-1.1,2.1-2.4,2.9-3.8l0.6-0.9l0.9-0.6l-0.6-0.9l1.2-1.5c2.3-1.7,4.1-4.1,6.4-5.8l0.9-0.9c0.3-0.7,0.8-1.3,1.5-1.7l2.3-1.2h1.2
			c0.9-0.3,1.6-1,2-1.7v-0.6c0.9-1.7,2.2-3.1,3.8-4.1l2.3-1.5l0.6-0.6l1.2-1.2l2.9-1.5h0.6l-3.2,1.2l-4.1,2.9
			c-1.7,1.5-4.1,1.7-5.2,4.1h0.9c-2,0.6-4.1,1.5-5,3.5s-2.3,1.7-3.5,2.6c-0.5,0.1-0.9,0.6-0.9,1.2c-2.3-0.3-3.2,1.5-4.4,2.6v2.3
			c-1.9,0.9-3.5,2.3-4.7,4.1C38,45.2,38,51.1,34,52.2h-0.3c-0.1,0.2-0.1,0.4,0,0.6c-0.9,0-1.5,0.6-1.2,1.5l-0.6,1.5
			c-2,1.2-1.7,3.2-2.9,5c-2.3,1.5-3.2,4.4-5,6.4l0.9,1.5l0.6-0.6C26.3,66.6,27.2,65.4,28.1,64.2z M156.9,1l1.7,0.6h0.6
			c1.3,0.6,2.7,0.8,4.1,0.6c1.8-0.3,3.7-0.2,5.5,0.3h3.5c1.2-0.3,2.5,0.1,3.5,0.9c0.1,0.1,0.1,0.2,0,0.3h-1.2
			c-0.1,0.1-0.1,0.2,0,0.3h2c1.2-0.5,2.6-0.5,3.8,0c0.6,0,0.3,0.3,0.6,0.6l1.5,0.6h-0.6C181.3,4,180.4,4,179.6,4
			c-3.9-1.8-8.2-2.7-12.5-2.6h-2.3c-3.4-1-6.9-1.4-10.5-1.2h0.6L156.9,1z M178.1,10h0.6H178.1z M200,11.4c0.8,0.8,1.9,1,2.9,0.6h1.7
			c-1.5-1.2-3.3-1.9-5.2-2l-2-0.6l1.5,0.9L200,11.4z M190.1,7.7c0,0.3,0.3,0.6,0.6,0.9h0.6l1.5-0.9c-1.5-0.9-3.2-1.5-5-1.7l2,1.2
			L190.1,7.7z M211.6,15.5L214,17C213.4,16.1,212.8,15.5,211.6,15.5z"/>
		<path id="path7" d="M288.2,213l1.7-4.7l1.7-4.4c0.6-1.5,1.7-5.2,2.3-7.6c0.1-0.7,0.4-1.4,0.9-2h0.3v-3.2c1.5-0.3,1.2-1.7,1.5-2.6
			l2.3-13.7c1.5-5.9,1.5-12.1,0-18.1c0.3-1.7-0.3-3.4-1.5-4.7v-12.5c-0.9-2.6,0.9-5.5-1.2-7.9l-2.3-9.3c0-0.2,0-0.4,0-0.6l-0.6-1.7
			c-0.2-0.4-0.2-0.8,0-1.2h0.3c0.9,0,0.9-1.5,0.9-2.6c-0.2-1.1-0.6-2.2-1.2-3.2l-0.9-1.2c-0.4-0.6-0.6-1.3-0.6-2
			c0.1-2-0.1-3.9-0.6-5.8v-1.7c-0.6-2-1.2-4.4-1.7-6.4l-0.6-1.5c-0.6-1-1-2.1-1.2-3.2c-0.2-0.8-0.5-1.6-0.9-2.3l-1.7-2.9
			c-0.5-0.4-1.1-0.6-1.7-0.6h-0.3v-0.9h-0.6v-2.3h-0.3v-0.6c0-0.1,0-0.2,0-0.3v-0.6c0.3-0.6,0.3-0.9-0.3-1.5
			c-0.5-0.5-0.9-1.1-1.2-1.7l-0.6-1.7c-0.4-1.3-1.1-2.5-2-3.5c-0.6-0.6-1.1-1.3-1.5-2l-2-4.7c-0.4-1-1-2-1.7-2.9l-1.7-2.3
			c-0.5-0.7-0.9-1.5-1.2-2.3l-0.6-0.9c-0.3-0.4-0.4-1-0.3-1.5c0-0.5-0.2-0.9-0.6-1.2l-1.2-0.9v0.6c0.3,0.6,0,0.9-0.3,0.9h-0.6
			l0.9,2.9l0.9,1.5l2,2.6h-0.3l-0.6-0.6L269,61c-0.3-1.8-1.7-3.1-3.5-3.2v-2c-0.9-3.5-4.7-3.8-6.4-6.1c-0.6-1.4-1.8-2.3-3.2-2.6
			l-2.3-2.6c-2.4-3.5-5.5-6.4-9-8.7l-2.3-1.7l-1.2-0.9c-2-2-2.9-5.2-6.4-5.2l-2.3-1.5l-2.6-2c-0.9-2.1-2.9-3.6-5.2-3.8
			c-1.9-1.7-4.2-2.9-6.7-3.5l0.6,0.6L220,19l3.8,2c2.3,1.2,4.3,2.8,6.1,4.7c1.3,1.3,2.8,2.3,4.4,3.2l1.7,1.5
			c0.3,0.3,0.6,0.6,0.3,0.9H236l-2.6-0.9c-2.1-0.4-4.1-1.2-5.8-2.3l-3.5-1.7l-3.8-2h-0.6c-0.9-0.3-1.2-1.2-2.3-1.5l-2.3-0.6
			l-7.3-1.5c-1-0.5-1.9-1.2-2.6-2c-0.9,0-1.8-0.3-2.6-0.9l-2.9-1.2c-2.8-0.6-5.5-1.3-8.2-2.3l-1.7-0.6l-2.9-0.9h-1.5l-0.6-0.9v-0.3
			h-4.7l-1.7-1.5l-1.2,0.6l-1.2,0.6h-0.6l-2.6-1.5c-1.7,1.7-3.2-0.6-4.7-0.3L165,8.5c-1.1,0.6-2.4,0.6-3.5,0H158
			c-0.9-0.1-1.5-0.9-1.5-1.7l0.9-0.6h1.7c0.2,0.3,0.3,0.6,0.3,0.9c0,0.6,0.6,0.6,1.5,0.6h0.6L160.3,6c-0.8-0.7-1.9-0.9-2.9-0.6
			l-2.9,0.9h-0.3c0.9,0.6,0.6,0.9,0.6,1.5h-4.7L149,7.1l-2.3-1.2h-0.3l-2-0.6h-6.7l1.2-0.6l2.3-0.6h0.9l5-0.9l3.2-0.6L152,2h-3.2
			c-3.3-0.7-6.6-0.7-9.9,0H135l-9.9-0.3c-4.1,0.3-8.2,0-11.4,3.5c-7.3-1.2-13.7,2-20.1,5.2L87.2,13c-4.1,0.6-7.8,2.4-10.8,5.2h0.9
			l1.5-0.9l2.3-1.5l3.8-1.7l2.9-0.6c1.8-1.2,3.7-2.1,5.8-2.6l2.6-0.9h0.6c0.3,0.6,1.5,0,2,0h0.6c0.3,0,0.3,0.3,0,0.3l-1.7,1.2
			l2.9-0.9l2.3-0.6l-3.8,2l-3.8,1.2c-0.8,0.2-1.4,0.8-1.7,1.5l-0.9,1.5h0.9l1.2-0.6c0.6-0.9,1.5-1.5,2.6-1.7l4.4-1.5h1.5
			c0.2-0.1,0.4,0,0.4,0.1c0.1,0.2,0,0.4-0.1,0.4l0,0c-0.6,0.6-1.7,0.9-2.3,1.5h0.6L92.6,17l-11.1,4.7c-1.9,1.7-4.2,2.9-6.7,3.5
			c-1.5,1.3-3.1,2.4-5,3.2L67.5,29c-0.7,1.5-2.1,2.5-3.8,2.6l-0.9,1.5c-0.9,1.3-2.1,2.4-3.5,3.2H59V36l-0.6,0.6l-0.6,0.6l-2.9,0.6
			h-1.5l-1.2,1.5C52,39.7,52,40,52.3,40h0.3c-1.7,1.7-2.9,4.1-5.2,5l-3.8,4.4c-1.7,3.5-5.2,4.7-7.6,7.6c-2.3,2.9-4.1,11.4-11.4,12.5
			L24,68.6L23.5,70c-0.3,0.8-0.6,1.6-1.2,2.3c-1.3,2-2.5,4-3.5,6.1c-0.3,0.4-0.4,1-0.3,1.5c0,0.8-0.2,1.6-0.6,2.3l-1.5,3.2H17
			c0.9,0,0.9,0.9,1.2,1.7l2.3-3.2c0.4-0.8,1-1.5,1.7-2c1.1-0.6,2.1-1.5,2.6-2.6l0.9-0.9l1.2-1.2l1.7-3.2h0.6c0.3,0.3,0.3,0.3,0.6,0
			l0.6-1.2h1.5v2.3l1.5-1.5c0.3-0.5,0.3-1,0-1.5c0-0.3,0.1-0.6,0.3-0.9c0.4-0.4,0.7-0.9,0.9-1.5c0.3-1.2,1.2-2.2,2.3-2.6l0.9-0.6
			l0.9-0.9c1-0.7,1.8-1.7,2.3-2.9l-0.6-0.9c0-0.3,0.3-0.9,0.6-1.2h1.5l1.7-2.3l1.7-0.9h0.6c-6,6.5-11.3,13.5-16,21h-0.3h0.3
			C24,88.9,18.8,99.9,15,111.3h-1.5l-1.5-1.2c-0.6-0.6-0.3-2-1.2-2.6h0.3c0.9-1.5-0.3-3.5,0.9-5s0.3-4.1-2.6-3.5s-4.4,1.5-3.8,4.4
			s-2.9,5.2-3.2,8.4c-0.3,3.2-1.5,1.5-0.9,2.6v11.4c0.3,2.3-1.5,5.2,2.3,6.1l3.8,2.6c0.3,1.5-1.5,4.7,2.6,3.8
			c-0.5,4.8-0.8,9.7-0.9,14.6c0,3.2,0.3,6.4,0.3,9.6v-1.2c-0.3-1.2-0.3-2.3-0.6-3.8l-0.9,0.9v-0.6H6.9c0,1.5-0.3,2.3-1.2,2.6
			c-0.2,0.4-0.3,1-0.3,1.5c0,0.3,0.3,0.9,0.6,0.6s1.2,0.6,2,1.2c0.9,0.6-0.6,0.9-1.2,0.6c-0.6-0.3-0.6,0.3-0.6,0.9v0.9l1.5,4.4
			c0,0.9-0.3,1.7-0.3,2.6c0,0.8,0.2,1.6,0.6,2.3H7.2v-0.9l-2-0.6v-1.7c0.1-0.5,0.1-1,0-1.5c-0.4-1.7-0.7-3.5-0.9-5.2
			c-0.6-3.4-0.7-6.8-0.6-10.2c0-0.5,0.1-1,0.3-1.5v0.6c0.1,0.5,0.2,1,0.3,1.5c0,0.4,0.1,0.8,0.3,1.2c0.3,0.6,0.6,1.2,1.2,1.2
			s0.3-0.3,0.3-0.6c0-0.5-0.1-1-0.3-1.5c-0.5-1.2-0.8-2.5-0.9-3.8c-0.1-0.7-0.4-1.4-0.9-2c-0.4-0.8-0.6-1.7-0.6-2.6v-2.3
			c0-0.9,0.3-1.7,0.3-2.6c0.1-0.4,0-0.8-0.3-1.2H3.1c-2.3,1.2-2,0.6-2.9,4.7v5.2c0,2-0.3,4.1,0,6.1c0,2.2,0.1,4.5,0.6,6.7
			c0.1,0.5,0.1,1,0,1.5c0,0.9,0.1,1.8,0.3,2.6c0.2,1.2,0.3,2.5,0.3,3.8c-0.2,1.7,0,3.4,0.6,5c0.1,0.4,0.1,0.8,0,1.2
			c-0.1,0.8,0,1.6,0.3,2.3c0.3,0.9,0.5,1.7,0.6,2.6c0.3,2.2,0.8,4.3,1.5,6.4c0.3,0.9,0.5,1.9,0.6,2.9c0.1,0.7,0.4,1.4,0.9,2
			c0.7,1,1.2,2.2,1.5,3.5c0.2,1,0.5,2,0.9,2.9l1.2,4.1c0.4,1.5,0.9,3,1.7,4.4c1,1.9,1.8,4,2.3,6.1l0.6,1.5c0.7,0.8,1.2,1.8,1.5,2.9
			c0.2,0.9,0.6,1.6,1.2,2.3c0.3,0.4,0.5,0.9,0.6,1.5c0.3,0.9,0.6,1.2,1.2,0.9h0.3v2.6l1.5,2.9l1.5,2.9l3.2,3.5l1.2,1.2
			c0.9,0.9,2,1.5,2.6,2.9l1.2,0.9c0.5,0.3,0.8,0.9,0.9,1.5l0.6,2c0.4,1,1,1.8,1.7,2.6l1.2,0.6h0.9c0.3,0.1,0.5,0.4,0.4,0.7
			c0,0,0,0.1-0.1,0.1c0,0.5,0,1,0,1.5c0.2,0.6,0.6,1.1,1.2,1.5h0.6c1.2-0.3,2.3,0.6,3.5,2h0.3c0-0.3,0.3-0.3,0-0.6V253
			c0-0.3,0.3-0.6,0.6-0.3c0.6,0.4,0.9,1.1,0.9,1.7v0.6c0.2,1.2,0.6,2.4,1.2,3.5c1.5,0.9,1.5,0.9,1.5,0.3s0-0.6,0.6-0.6h1.2l0.6,0.9
			l2.3,1.5c2,2.3,5.2,2,7.6,3.5l5,5h0.6c0.9,2.1,2.5,3.8,4.7,4.7c0.6,1,1.7,1.7,2.9,1.7c0,1.5,1.7,1.7,3.2,2
			c0.6,0.7,1.4,1.1,2.3,1.2h0.6c1.1,1.2,2.8,1.7,4.4,1.5l2.6,2.3l7,2.6v0.6c1.5,3.2,5,2,7.3,2.9l3.2,1.2h1.2c3.5,0.9,7,2.6,10.8,1.5
			c-0.1,0.4-0.1,0.8,0,1.2c3.2,2,7,0,10.5,1.2c1.6,0.6,3.3,0.7,5,0.3h0.3l2.3,0.6h0.9l2.6,0.6h0.9c0.5-0.3,1-0.3,1.5,0
			c1.4,0.5,2.9,0.9,4.4,1.2h1.7c0.6-0.4,1.4-0.4,2,0H156c1.6,0.2,3.1,0.1,4.7-0.3h2.9l1.5-0.6h9.6l1.7-0.6l1.5-0.9h6.4v1.7h-3.8
			L177,296c-1.2,0.3-2,0-2.9,0.3c-0.9,0.4-1.9,0.6-2.9,0.6l-3.8,0.9h-1.2c-1.5-0.3-3-0.2-4.4,0.3h-5.2c-0.8,0.4-1.8,0.4-2.6,0h-13.1
			c-1.1-0.2-2.3,0.1-3.2,0.9h-0.9l-0.9-0.6v-0.9h-3.5c-1.2-0.5-2.5-0.8-3.8-0.9h-7.3l-2-0.6l-1.5-0.6l-6.1-1.2h-1.5l-1.5-0.6l-6.1-2
			l-4.1-1.2h-6.4c-0.3,0-0.3,0.3-0.3,0.6h0.6c3.8,1.5,7.6,2.6,11.4,4.4h0.9l2.6,0.6l4.1,1.2h3.8l1.7,0.6l2,0.9l5,0.9l3.2,0.6
			l3.2,0.6h2.3l2.3,0.6h9l2.9,0.6h6.7l2.9-0.6h6.4c1.2,0,1.7-0.3,2-0.9h2.9c0.9,0.1,1.7-0.2,2.3-0.9c-0.3,0.3,0,0.3,0.3,0.6h1.2
			v-0.6c0-0.3,0-0.3,0.6-0.6c0.6-0.3,1.7-0.3,2,0.3h1.2l0.9-0.6c0.6,0,0.6,0,0.6,0.3h2l1.5-0.6l2.3-1.2c0.3,0.9,1.2,1.2,3.8,0.6
			l3.8-1.2h3.5c2.6-0.3,5.8,0,7.9-2h0.6l1.2-0.9l3.2-0.9c2.1-0.4,4-1.2,5.8-2.3l1.2-0.6h0.3l2.6-1.7l1.2-0.6l1.5-0.6h1.2
			c1.2-0.3,1.2-0.3,1.5-1.2c0.3-0.9,0-0.3-0.6-0.3H221l1.2-1.5h0.6c0.9-0.3,1.5-0.6,2-0.3h0.6c1.3-0.4,2.3-1.4,2.6-2.6
			c0.9-1.2,3.2-0.6,3.8-2.3l12.5-9c3.2-0.3,4.1-3.2,6.4-5c2.3-1.7,6.7-3.2,8.7-6.4l2.6-1.2h0.3c1.5,0.4,3.1-0.5,3.5-2v1.2
			c2.3-1.2,5.2,0.9,7.6-1.5s0-7.9,2.9-11.1l2-1.5c2.2-3.8,3.7-7.9,4.4-12.2l0.6-0.6c0-0.9,0-2,1.2-2.6c1.1-0.8,1.3-2.4,0.6-3.5h-0.6
			c0.2-0.3,0.2-0.6,0-0.9c2,0,2.3-2,3.5-2.9v-4.1c0-0.2,0-0.4,0-0.6C288.1,214.4,288.2,213.7,288.2,213L288.2,213z"/>
		<path id="path9" d="M76.8,18.4L75.9,19l-1.2,0.9l1.5-0.6L76.8,18.4z M94.6,12.6h0.3l0.9-0.6h-1.2L94.6,12.6z M87,15.5l-0.3,0.3H87
			V15.5z M26.7,67.7l-1.2,1.2h0.6C26.5,68.6,26.8,68.1,26.7,67.7z M35.4,57.5c0.4-0.5,0.7-1.1,0.9-1.7c-0.6,0.4-1.1,0.9-1.5,1.5
			c-0.3,0.3-0.3,0.6,0,0.6L35.4,57.5z M31.9,61.8v-0.6c-0.6,0-1.5,0.9-2.3,0.9v0.6C30.5,63.6,30.8,63.3,31.9,61.8z M215.1,18.1h0.3
			l-1.5-0.9L215.1,18.1z M207.9,14.1c1.5-0.3,2.3,1.2,3.5,1.5h0.3l-0.9-0.6l-2.9-1.5l-3.2-1.5l0.9,0.6L207.9,14.1z M187.8,6.2h-0.3
			L184,5.6h1.5L187.8,6.2z M193.6,8.2l3.8,1.2C196.2,8.8,194.9,8.4,193.6,8.2z M167.4,8.2c0.3-0.4,0.5-0.9,0.6-1.5h-1.5l-0.9,0.9
			l1.2,0.9L167.4,8.2z M181.4,9.1c0,0.1,0,0.2,0,0.3V9.1z M311.8,161.4H311v-1.2h0.9c0.3,0,0.6-0.9,0.3-1.2c-0.3-0.3-0.3-2-0.9-2.3
			c-0.4-0.1-0.6-0.5-0.6-0.9l0.6-1.2c0-0.2,0-0.4,0-0.6h-0.6l-0.6-0.9c-0.3,0.9-0.6,1.7-1.2,2c0,0.2,0,0.4,0,0.6
			c0,0.3,0,0.6-0.3,0.6h-0.3c-0.1,0.3-0.2,0.6-0.3,0.9c-0.6,0.8-1,1.7-1.2,2.6c-0.1,0.4,0,0.9,0.3,1.2h0.3c-0.3,0.7-0.4,1.5-0.3,2.3
			v1.2c0,0.5-0.1,1-0.3,1.5h-0.3l-1.2,2v1.7c0.1,1.1-0.2,2.3-0.9,3.2H304l-0.6-0.6c-0.5-0.7-0.6-1.6-0.3-2.3c0.3-1.6,0.4-3.3,0.3-5
			c0-0.3-0.3-0.6-0.3-0.6c-0.2,0.3-0.3,0.6-0.3,0.9v1.7c0,0.6-0.3,1.7-0.9,2s-0.3,0.6-0.3,0.9l-0.6,1.7l0.9,1.5
			c-0.6,0.6-1.2,0.3-1.5-0.3v2.9h0.9v1.2c-0.5,1.3-0.8,2.7-0.9,4.1c0,0.4,0,0.8,0,1.2c0,1.3-0.2,2.6-0.6,3.8c-0.1,0.6-0.1,1.2,0,1.7
			l-0.9,2c-0.2,0.7-0.5,1.4-0.9,2l-0.9,1.7l-2.6,7.9c0.9,2.6-1.2,4.4-2.3,6.1c0.3,2.5-0.5,5-2.3,6.7v1.2c0,0.3,0.3,0.6,0.9,0.3
			l1.2-0.9l0.6-1.2h0.6c0.3,0.3,0.6,0.3,1.2-0.3h0.6c0.5,0.4,0.6,1.2,0.3,1.7c-0.2,0.8-0.3,1.5-0.3,2.3c0,0.3,0,0.6,0.3,0.6h0.6
			c0.3,0.3,0.6,0,0.9-0.9l0.6-1.5h0.9c1.2-0.3,1.2-0.3,1.7-1.7l1.5-2.6l0.9-1.7l1.2-2.9c0-1,0.3-2.1,0.9-2.9
			c0.4-0.5,0.5-1.2,0.3-1.7c0-0.6,0-0.9,0.6-1.7l0.9-1.2l1.5-2.9c0.1-0.9,0.3-1.8,0.6-2.6c0.6-1.2,0.9-2.5,0.9-3.8
			c0.2-0.9,0.5-1.8,0.9-2.6v-1.5c-0.3-0.6-0.3-0.6,0-1.7s0.3-0.6,0.6-0.6c0.2,0.2,0.3,0.6,0.3,0.9l0.6-1.5c0.4-0.8,0.6-1.7,0.6-2.6
			v-0.9c0-0.3,0-0.9-0.3-0.9v1.2c-0.6,0-0.9,0.6-1.5,0.9c0.1-0.8,0.2-1.5,0.3-2.3l1.2-0.6c0.5-0.5,0.7-1.1,0.6-1.7
			c0-0.3,0-0.6,0-0.9c0.4-1.3,0.6-2.7,0.6-4.1v-0.6l0.9-2.9h0.3c0.3-0.2,0.4-0.6,0.3-0.9h-0.3c-0.2-0.8,0-1.7,0.6-2.3
			C314.1,163,313.1,161.9,311.8,161.4L311.8,161.4z M26.4,81.1c0.1-0.2,0.1-0.4,0-0.6l-0.6-0.6l-0.6,0.6l-0.9,1.7
			c0,0.9-0.9,1.7-0.9,2.6v0.6h0.3L26.4,81.1z M306.9,153.3h0.3c0.6-1.1,0.8-2.3,0.6-3.5c-0.1-0.6,0.1-1.1,0.6-1.5h0.3v-0.6l-0.6-0.6
			h-0.3c-0.3,0.3-0.6,0.9-0.9,0.9s-0.3,0.3-0.3,0.9v0.9C306.4,151,306.5,152.2,306.9,153.3L306.9,153.3z M38.3,253.8
			c-0.3,0,0,0.6,0,0.9l2.3,2.3H41c-0.6-0.9-0.9-1.7-0.6-2c-0.5,0-1-0.2-1.5-0.6L38.3,253.8z M309.5,150.7h0.3c0.1-0.6,0.1-1.2,0-1.7
			c-0.9,0.3-0.9,0.3-0.9,1.7S309.2,151,309.5,150.7L309.5,150.7z"/>
		<path id="path11" d="M310.7,171.9c0.3-0.4,0.4-1,0.3-1.5c0-0.3-0.3-0.6-0.3-0.3h-0.6v0.6C310.1,171.9,310.4,172.2,310.7,171.9
			L310.7,171.9z M311,148h-0.3v1.7C310.9,149.3,311,148.6,311,148z M49.7,261.1h-0.6v0.6l0.6,0.6h0.6v-0.6L49.7,261.1z M301.9,164.1
			c0-0.3,0-0.3-0.3-0.3L301.9,164.1z M28.7,243.3l1.5,1.5L29,243L28.7,243.3z"/>
		<polygon id="circle13" points="30.4,244.9 30.4,244.9 30.4,244.9 		"/>
		<path id="path15" d="M28.1,79h-0.3v0.6V79H28.1z M270.5,59.8l-0.6-0.9h-0.3L270.5,59.8z M16.8,85.7c0.2-0.1,0.3-0.4,0.3-0.6v0.6
			H16.8z M303.7,167.8v0.3V167.8z M47.7,260.8h-0.3c0.3,0.3,0.6,0,0.3-0.3V260.8z M48.2,262.8h0.3l-0.3-0.3V262.8z"/>
	</g>
</g>
<g>
	<g>
		<path class="st0" d="M154.7,144.2"/>
		<path class="st1" d="M260.3,158.5l-34.3-20l23.5,3.3L194,90.8l-34.1,53.6l-5.2,31.5l-5.2-31.5l-34.1-53.6l-55.6,50.9l23.6-3.3
			l-34.3,20l35.6,16.8H68l41.6,24.3l11.8,42.6l27.3,15.8l6-5.3h-2.6l-11.9-17l2.3-4h12.2h12.2l2.3,4l-11.9,17h-2.6l6,5.3l27.3-15.8
			l11.8-42.6l41.6-24.3h-16.5L260.3,158.5z M129.6,160l-10.1,1.1l-11.8-13.9c0,0,20.1,4.1,20.7,4.3c0.6,0.2,13.9,19.9,13.9,19.9
			L129.6,160z M189.9,161.1l-10.1-1.1l-12.6,11.4c0,0,13.3-19.7,13.9-19.9c0.6-0.2,20.7-4.3,20.7-4.3L189.9,161.1z"/>
		<g>
			<polygon class="st1" points="198.1,75.1 226.1,38.8 227.8,105.3 			"/>
			<polygon class="st1" points="111.2,75.1 83.2,38.8 81.5,105.3 			"/>
		</g>
	</g>
	<path class="st2" d="M167.2,171.4l12.6-11.4l10.1,1.1l11.8-13.9c0,0-20.1,4.1-20.7,4.3C180.5,151.7,167.2,171.4,167.2,171.4z"/>
	<g>
		<path class="st3" d="M140.2,235.6l2.3-4h12.2V176l-5.2-31.5l-34.1-53.6l-55.6,50.9l23.6-3.3l-34.3,20l35.6,16.8H68l41.6,24.3
			l11.8,42.6l27.3,15.8l6-5.3h-2.6L140.2,235.6z M119.4,161.1l-11.8-13.9c0,0,20.1,4.1,20.7,4.3c0.6,0.2,13.9,19.9,13.9,19.9
			L129.6,160L119.4,161.1z"/>
		<polygon class="st3" points="83.2,38.8 81.5,105.3 111.2,75.1 		"/>
	</g>
</g>
</svg>
